Dog Pound (2010) 1080p X264 MKV AC3+DTS Eng-NLSub


PLOT

Three juvenile delinquents arrive at a correctional center and are 
put under the care of an experienced guard.



MM:    http://www.moviemeter.nl/film/60479

IMDB:    http://www.imdb.com/title/tt1422020/

INFO

Source........: BR
Resolution....: 1920 x 1072 (WS)
Framerate.....: 23.97 fps 
Audio 1.......: English DTS @ 1510 Kbps
Audio 2.......: AC3 @ 640 Kbps
Subtitles.....: Dutch cust by FRT / English
FRT SUbbers...: Dejavu en Poppetje1969
Controle......: Poppetje1969
Bewerking.....: Dejavu

Thanks to FRT-Team

Enjoy This Nice Release

   PLAYER INFO
      Format : Matroska
      File size : 6.96 GiB
      Duration : 1h 30mn
      Overall bit rate : 11.0 Mbps
      Encoded date : UTC 2010-09-10 11:59:32
      Writing application : mkvmerge v3.1.0 ('Happy up here') built on Jan 19 2010 12:09:24
      Writing library : libebml v0.7.9 + libmatroska v0.8.1
   Video #1
      ID : 1
      Format : AVC
      Format/Info : Advanced Video Codec
      Format profile : High@L4.1
      Format settings, CABAC : Yes
      Format settings, ReFrames : 4 frames
      Muxing mode : Container profile=Unknown@4.1
      Codec ID : V_MPEG4/ISO/AVC
      Duration : 1h 30mn
      Bit rate : 8 589 Kbps
      Nominal bit rate : 8 810 Kbps
      Width : 1 920 pixels
      Height : 1 072 pixels
      Display aspect ratio : 16:9
      Frame rate : 23.976 fps
      Resolution : 24 bits
      Colorimetry : 4:2:0
      Scan type : Progressive
      Bits/(Pixel*Frame) : 0.174
      Stream size : 5.45 GiB (78%)
      Writing library : x264 core 104 r1703 cd21d05
      Encoding settings : cabac=1 / ref=4 / deblock=1:0:0 / analyse=0x3:0x113 / me=umh / 
subme=7 / psy=1 / psy_rd=1.00:0.00 / mixed_ref=1 / me_range=16 / chroma_me=1 / trellis=1 / 
8x8dct=1 / cqm=0 / deadzone=21,11 / fast_pskip=0 / chroma_qp_offset=-2 / threads=6 / 
sliced_threads=0 / nr=0 / decimate=1 / interlaced=0 / constrained_intra=0 / bframes=3 / 
b_pyramid=2 / b_adapt=1 / b_bias=0 / direct=1 / weightb=1 / open_gop=0 / weightp=2 / 
keyint=250 / keyint_min=23 / scenecut=40 / intra_refresh=0 / rc_lookahead=40 / rc=2pass / 
mbtree=1 / bitrate=8810 / ratetol=1.0 / qcomp=0.60 / qpmin=10 / qpmax=51 / qpstep=4 / 
cplxblur=20.0 / qblur=0.5 / ip_ratio=1.40 / aq=1:1.00
      Language : English
   Audio #2
      ID : 2
      Format : AC-3
      Format/Info : Audio Coding 3
      Codec ID : A_AC3
      Duration : 1h 30mn
      Bit rate mode : Constant
      Bit rate : 640 Kbps
      Channel(s) : 6 channels
      Channel positions : Front: L C R, Surround: L R, LFE
      Sampling rate : 48.0 KHz
      Stream size : 417 MiB (6%)
      Language : English
   Audio #3
      ID : 3
      Format : DTS
      Format/Info : Digital Theater Systems
      Codec ID : A_DTS
      Duration : 1h 30mn
      Bit rate mode : Constant
      Bit rate : 1 510 Kbps
      Channel(s) : 6 channels
      Channel positions : Front: L C R, Surround: L R, LFE
      Sampling rate : 48.0 KHz
      Resolution : 24 bits
      Stream size : 983 MiB (14%)
      Language : English
   Text #4
      ID : 4
      Format : UTF-8
      Codec ID : S_TEXT/UTF8
      Codec ID/Info : UTF-8 Plain Text
      Language : English
   Text #5
      ID : 5
      Format : UTF-8
      Codec ID : S_TEXT/UTF8
      Codec ID/Info : UTF-8 Plain Text
      Language : Dutch